<!-- created by svgstack.com | Attribution is required. --><svg width="209" height="201" viewBox="0 0 209 201" fill="none" xmlns="http://www.w3.org/2000/svg"><g clip-path="url(#clip0_106_2256)"><path d="M122.117 198.316C169.682 198.316 208.24 161.094 208.24 115.178C208.24 69.2626 169.682 32.0403 122.117 32.0403C74.5529 32.0403 35.9939 69.2626 35.9939 115.178C35.9939 161.094 74.5529 198.316 122.117 198.316Z" fill="black"/><path d="M99.8909 180.893C149.917 180.893 190.762 141.703 190.762 93.0071C190.762 44.3113 149.917 5.12085 99.8909 5.12085C49.8649 5.12085 9.01978 44.3113 9.01978 93.0071C9.01978 141.703 49.8649 180.893 99.8909 180.893Z" fill="#FF90E8" stroke="black" stroke-width="6.25"/><path d="M93.0558 137.346C67.6239 137.346 52.6643 116.798 52.6643 91.2376C52.6643 64.6744 69.1197 43.1238 100.535 43.1238C132.948 43.1238 143.918 65.1762 144.417 77.7051H120.98C120.482 70.6888 114.497 60.1641 100.037 60.1641C84.5787 60.1641 74.6052 73.6961 74.6052 90.2352C74.6052 106.774 84.5787 120.306 100.037 120.306C113.999 120.306 119.983 109.28 122.476 98.2545H100.037V89.2328H147.122V135.341H126.465V106.273C124.969 116.798 118.487 137.346 93.0558 137.346Z" fill="black"/></g><defs><clipPath id="clip0_106_2256"><rect width="208" height="200" fill="white" transform="translate(0.239502 0.275146)"/></clipPath></defs></svg> 